<svg xmlns="http://www.w3.org/2000/svg" data-name="Layer 1" width="973.5" height="587" viewBox="0 0 973.4614 587.02513" xmlns:xlink="http://www.w3.org/1999/xlink"><g id="f9b32178-6d95-472d-b482-6662972666de" data-name="Group 100"><path id="f4b94a19-cbe0-459a-95a6-6ea3b3d72055-353" data-name="Path 1465" d="M 704.1 627.1 C 697.8 627.1 692.7 632.2 692.7 638.6 C 692.7 644.9 697.8 650.1 704.1 650.1 C 710.5 650.1 715.6 644.9 715.6 638.6 h 0 C 715.6 635.5 714.4 632.6 712.3 630.5 C 710.1 628.3 707.2 627.1 704.1 627.1 Z m 0 18.6 C 700.2 645.7 697.1 642.5 697.1 638.6 C 697.1 634.7 700.2 631.5 704.1 631.5 C 708.1 631.5 711.2 634.7 711.2 638.6 v 0 C 711.2 642.5 708.1 645.7 704.1 645.7 Z" transform="translate(-113.3,-156.5)" fill="#e4e4e4"/><path id="abc0e0b3-f22e-4bee-9929-c6879640924e-354" data-name="Path 1467" d="M 660 618.3 h 44.2 v 43.7 C 704.1 665.2 701.6 667.8 698.4 667.8 h -32.7 C 662.5 667.8 660 665.2 660 662 V 618.3 Z" transform="translate(-113.3,-156.5)" fill="#e4e4e4"/></g><path id="e24b6f19-a0a0-4e73-9cfc-bbb7635ad236-355" data-name="Path 944" d="M 778.5 669.8 h -602.4 C 175.6 669.8 175.2 669.4 175.2 668.8 C 175.2 668.2 175.6 667.8 176.1 667.8 h 602.4 C 779 667.8 779.4 668.2 779.4 668.8 C 779.4 669.4 779 669.8 778.5 669.8 Z" transform="matrix(1,0,0,1,-113.3,-156.5)" fill="#cacaca"/><polygon points="375.3,512.3 371.1,531.8 449.1,556.4 455.3,527.5 375.3,512.3" fill="#ffb6b6"/><path d="M 591.2 682 l -8.1 40 l 0 0 C 580.3 736 566.6 745.1 552.5 742.3 l -0.8 -0.2 l 13.2 -65.5 Z" transform="matrix(1,0,0,1,-113.3,-156.5)" fill="#2f2e41"/><circle id="fd4e5ab9-ffc8-4bbb-9267-3af70c31dae1" data-name="Ellipse 276" cx="345.6" cy="155.2" r="51.9" fill="#feb8b8"/><path id="a8c9bbe2-1461-49cf-8211-f8d251166dc5-356" data-name="Path 1461" d="M 507.5 261.2 C 499.7 248.6 487.6 239.3 473.4 235.1 l -6.4 4.6 v -6 C 463.6 233.2 460.1 233 456.7 233.1 l -5.5 5 v -4.6 C 434.7 235.6 419.9 244.4 410.3 257.8 c -11.9 17.2 -13.9 41.1 -2.2 58.5 c 3.2 -9.9 7.1 -19.2 10.4 -29.1 C 421 287.6 423.5 287.6 426.1 287.2 l 3.9 -9.1 l 1.1 8.8 c 12.1 -1.1 30.2 -3.4 41.7 -5.5 l -1.1 -6.7 l 6.7 5.6 c 3.5 -0.8 5.6 -1.5 5.5 -2.1 c 8.6 13.8 19 22.6 27.6 36.4 C 514.7 295.1 518.4 278.9 507.5 261.2 Z" transform="matrix(1,0,0,1,-113.3,-156.5)" fill="#2f2e41"/><ellipse id="f6be96d1-713f-4c17-812c-ecd79c56fe95" data-name="Ellipse 260" cx="339.6" cy="473.1" rx="133.6" ry="37.4" fill="#2f2e41"/><path d="M 560.8 438.8 c -1.8 -10.7 -3.6 -21.7 -8.6 -31.3 c -3.3 -6.3 -8.5 -12.4 -15.5 -13.6 C 535.3 393.8 534 393.5 532.7 393 c -2.1 -1 -29.7 -16.8 -34.1 -19.5 c -3.8 -2.4 -9.7 -6.7 -12.7 -6.7 c -3 -0.1 -14.6 2.6 -59.8 -0.9 C 418.5 369 411.2 372.6 404.1 376.7 c -0.1 -0.1 -46.9 25 -48.6 24.9 c -3.3 -0.1 -6.4 2 -8.3 4.7 c -1.9 2.7 -2.8 6 -3.7 9.2 c 10.2 22.7 19.5 45.5 29.8 68.2 C 373.8 484.6 374 485.6 374 486.5 C 373.8 487.6 373.3 488.5 372.7 489.3 c -5 8 -4.8 18.2 -4.3 27.6 c 0.5 9.5 1.2 19.4 -3 27.9 c -1.1 2.3 -2.6 4.5 -3.7 6.8 c -2.6 5.3 -3.5 22.1 -2 27.8 l 187.3 5.4 C 542.9 573.6 560.8 438.8 560.8 438.8 Z" transform="matrix(1,0,0,1,-113.3,-156.5)" fill="#6366f1"/><path id="eb41f72e-aba6-4a16-bf55-c7027d2f1a4b-357" data-name="Path 1421" d="M 324.7 484.6 C 324.3 487.4 324.3 490.1 324.6 492.8 l 2.7 38.5 c 0.3 3.6 0.5 7.3 0.8 10.9 c 0.6 7 1.6 14 2.8 21 C 330.9 564.2 331.3 565.2 332.1 565.8 C 332.8 566.5 333.7 566.9 334.7 566.8 c 11.8 2.5 24 2.4 36.1 1.7 c 18.4 -1 65.5 -3 68.3 -6.7 s 1.2 -9.8 -2.5 -12.8 s -65.9 -10.4 -65.9 -10.4 c 0.6 -4.8 2.4 -9.3 4.2 -13.9 c 3.1 -8.1 6 -16.5 6.1 -25.1 s -3.2 -17.8 -10.3 -22.8 c -5.8 -4.1 -13.4 -4.8 -20.5 -4.7 c -5.2 0.1 -14.1 -1.1 -18.9 0.9 C 327.6 474.8 325.4 481 324.7 484.6 Z" transform="matrix(1,0,0,1,-113.3,-156.5)" fill="#fbbebe"/><path id="a363f2f7-2464-40a1-ad01-344825aa0b75-358" data-name="Path 1423" d="M 568.8 576.4 c 3.1 -1.2 6.5 -0.8 9.9 -0.3 c 10.7 1.5 21.6 3 31.6 7.3 c 4.7 2 9.1 4.7 12.3 8.6 c 2.8 3.5 4.4 7.9 6 12.1 l 3.6 9.8 C 633.7 617.6 634.7 621.5 635.3 625.4 c 1.1 11.8 -6.9 22.8 -17 29 s -22 8.3 -33.6 10.6 s -23.2 4.8 -34.8 7.5 C 544.4 673.8 538.9 674.9 533.4 675.6 c -12.4 1.4 -25.3 -0.7 -37 3.4 c -4.7 1.6 -9.3 4.1 -14.1 5.2 C 479.1 684.9 475.8 685.4 472.5 685.7 l -22.2 2.5 C 445.8 688.9 441.2 689.2 436.7 689.3 c -9.7 0 -19.3 -2.3 -28.7 -4.6 C 407 684.5 406 684.2 405.2 683.6 c -1.5 -1.2 -1.8 -3.3 -2 -5.1 q -1.4 -12.5 -2.5 -25.1 c -0.2 -2.7 -0.4 -5.7 1.1 -7.9 c 1.9 -2.8 5.5 -3.7 8.8 -4.2 C 424.6 638.9 438.9 637.9 453.2 638.2 c 5.4 -5.4 14.4 -5.5 21.5 -8.4 C 477.3 628.6 479.8 627.2 482.3 625.7 C 495 618.3 509.2 613.8 523.9 612.6 C 526.7 612.5 529.6 612.1 532.4 611.4 c 5.5 -1.7 10.5 -6.4 16.2 -5.2 c 0.7 -1.9 1.2 -4.5 2.8 -5.8 c 0.8 -0.7 1.8 -1.1 2.5 -1.9 c 1.6 -1.6 1.7 -4.1 1.5 -6.3 s -0.8 -4.5 -0.2 -6.6 C 555.4 584.7 555.7 583.9 556.2 583.2 C 559 578.4 563.2 575.9 568.8 576.4 Z" transform="matrix(1,0,0,1,-113.3,-156.5)" fill="#2f2e41"/><path id="b53ad979-99f4-4c6e-a0f8-957060c42096-359" data-name="Path 1430" d="M 340.4 413.6 C 339.5 414.6 338.8 415.7 338.3 416.9 C 330.7 434 326.3 452.2 325.1 470.7 C 325.1 471.7 324.9 472.5 324.5 473.3 C 324.1 473.9 323.6 474.4 323.1 474.8 C 321.3 477 321.5 480.3 323.7 482.1 q 0.1 0.1 0.3 0.2 c 1.5 -2.9 5.2 -3.8 8.5 -4.1 c 15.7 -1.2 31 6.1 46.8 5.5 c -1.1 -3.8 -2.7 -7.5 -3.6 -11.4 c -4 -17.3 6 -36 -0.1 -52.6 c -1.2 -3.3 -3.3 -6.6 -6.5 -8.1 C 367.8 411.1 366.3 410.7 364.9 410.5 c -4 -0.7 -11.9 -3.8 -15.7 -2.6 c -1.4 0.5 -2 1.8 -3.2 2.6 C 344.2 411.7 341.9 412.1 340.4 413.6 Z" transform="matrix(1,0,0,1,-113.3,-156.5)" fill="#6366f1"/><path id="a1197c30-bfd4-4098-bcf9-2468e7a33bf1-360" data-name="Path 1421" d="M 572.2 468.1 c -4.7 -2 -13.7 -0.8 -18.9 -0.9 c -7.1 -0.2 -14.7 0.6 -20.5 4.7 c -7.1 5 -10.4 14.1 -10.3 22.8 s 3 17 6.1 25.1 c 1.7 4.6 3.6 9.1 4.2 13.9 c 0 0 -62.1 7.4 -65.9 10.4 s -5.4 9.1 -2.5 12.8 s 92.6 7.5 104.4 5 C 569.7 562 570.7 561.6 571.4 560.9 C 572.1 560.3 572.5 559.3 572.6 558.3 c 1.2 -7 2.2 -13.9 2.8 -21 c 0.3 -3.6 0.6 -7.2 0.8 -10.9 l 2.7 -38.5 C 579.2 485.2 579.1 482.5 578.8 479.7 C 578.1 476 576 469.8 572.2 468.1 Z" transform="matrix(1,0,0,1,-113.3,-156.5)" fill="#fbbebe"/><path id="ebe46053-6aac-4aa7-8615-21a6fa79538d-361" data-name="Path 1430" d="M 553.8 404.3 c -1.2 -0.8 -1.7 -2.1 -3.2 -2.6 c -3.8 -1.2 -11.8 1.8 -15.7 2.6 C 533.5 404.5 532.1 404.9 530.7 405.4 c -3.2 1.5 -5.3 4.7 -6.5 8.1 c -6.1 16.6 3.9 35.4 -0.1 52.6 c -0.9 3.9 -2.5 7.6 -3.6 11.4 c 15.7 0.6 31.1 -6.8 46.8 -5.5 c 3.3 0.3 7 1.2 8.5 4.1 q 0.1 -0.1 0.3 -0.2 C 578.3 474 578.5 470.8 576.7 468.6 C 576.2 468.1 575.7 467.6 575.3 467.1 C 574.9 466.3 574.7 465.4 574.7 464.5 C 573.5 445.9 569.1 427.7 561.5 410.7 C 561 409.5 560.3 408.3 559.4 407.4 C 557.9 405.9 555.5 405.5 553.8 404.3 Z" transform="matrix(1,0,0,1,-113.3,-156.5)" fill="#6366f1"/><polygon transform="matrix(1,-0.2,0.2,1,-113.1,75.9)" points="343.1,506.6 340.5,525.5 261.4,524.9 265.3,496.8 343.1,506.6" fill="#ffb6b6"/><path d="M 358.5 648.5 l -8.8 66.2 l -0.8 -0.1 C 342.1 713.7 335.8 710.2 331.6 704.7 C 327.4 699.2 325.6 692.3 326.5 685.4 l 0 0 l 5.4 -40.5 Z" transform="matrix(1,-0.3,0.3,1,-286.5,-39.8)" fill="#2f2e41"/><path id="a0b0f7ea-4ed9-4447-aa64-e2335b2c3196-362" data-name="Path 1427" d="M 380.6 600.1 c 0 0.9 -1.5 0 -1.6 -1 c -1 -7.6 -7 -13.8 -14 -16.8 s -14.9 -3.2 -22.5 -2.5 c -11.4 1.1 -24.3 5.5 -28.5 16.2 c -1 2.5 -10.3 24.8 -9.4 29.8 c 2.4 13.4 11.6 24.8 22.6 32.7 s 24 12.6 36.9 16.9 C 398.3 686.6 433.3 695 468.8 700.4 c 5.8 0.9 11.6 1.7 17.1 3.5 c 4.9 1.7 9.5 4.1 14.4 6.1 c 11.2 4.5 23.3 6.1 35.2 7.7 c 2 0.3 4.4 0.4 5.9 -0.9 c 1.9 -1.8 1.3 -4.9 0.7 -7.5 C 540 699.3 541.7 689.1 546.8 680.4 c 2 -3.4 4.6 -6.8 4.2 -10.7 c -0.4 -4.5 -5 -7.8 -9.5 -8.5 s -9.1 0.3 -13.6 0.9 C 526.4 662.6 524.8 662.4 523.3 661.7 C 522.7 661.3 522.1 660.8 521.5 660.1 C 515.1 654 505.5 652.6 497.7 656.8 c -1.7 0.9 -4.2 -1.1 -5.9 -1.9 l -19.6 -8.9 c -22.6 -10.2 -45.2 -20.5 -69.1 -26.9 C 401.1 618.7 399.3 617.9 397.7 616.8 c -1.2 -0.9 -2 -2.2 -3.1 -3.2 c -2.4 -2.3 -5.7 -3.1 -8.6 -4.7 S 379.9 603.3 380.6 600.1 Z" transform="matrix(1,0,0,1,-113.3,-156.5)" fill="#2f2e41"/><circle cx="334.4" cy="397" r="14" fill="#fbbebe"/><circle cx="361.6" cy="395.7" r="14" fill="#fbbebe"/><path d="M 552.6 607.6 H 360.3 C 355.6 607.6 351.8 603.8 351.8 599.1 V 482.4 C 351.8 477.7 355.6 474 360.3 473.9 H 552.6 C 557.3 474 561.1 477.7 561.1 482.4 V 599.1 C 561.1 603.8 557.3 607.6 552.6 607.6 Z" transform="matrix(1,0,0,1,-113.3,-156.5)" fill="#3f3d56"/><circle id="e793da3b-cee2-4a15-ae11-6dab45a6c728" data-name="Ellipse 263" cx="343.9" cy="384.2" r="5.6" fill="#ffffff"/><ellipse rx="0" ry="0" cx="298" cy="480" fill="rgb(255, 255, 255)"/>
</svg>